<?xml version="1.0" encoding="utf-8"?>
<!-- Generator: Adobe Illustrator 24.3.0, SVG Export Plug-In . SVG Version: 6.00 Build 0)  -->
<svg version="1.1" id="Layer_1" xmlns="http://www.w3.org/2000/svg" xmlns:xlink="http://www.w3.org/1999/xlink" x="0px" y="0px"
	 viewBox="0 0 327.9 104.6" style="enable-background:new 0 0 327.9 104.6;" xml:space="preserve">
<style type="text/css">
	.st0{fill:url(#SVGID_1_);}
	.st1{fill:url(#SVGID_2_);}
	.st2{fill:url(#SVGID_3_);}
	.st3{fill:url(#SVGID_4_);}
	.st4{fill:url(#SVGID_5_);}
	.st5{fill:url(#SVGID_6_);}
	.st6{fill:url(#SVGID_7_);}
	.st7{fill:url(#SVGID_8_);}
	.st8{fill:url(#SVGID_9_);}
	.st9{fill:url(#SVGID_10_);}
	.st10{fill:#FFFFFF;}
</style>
<g>
	
		<linearGradient id="SVGID_1_" gradientUnits="userSpaceOnUse" x1="-320.8617" y1="-340.5245" x2="-258.6794" y2="-232.8215" gradientTransform="matrix(-8.958111e-04 1 -1 -8.958111e-04 -215.4404 319.8854)">
		<stop  offset="0" style="stop-color:#8C42A1"/>
		<stop  offset="0.3886" style="stop-color:#922C88"/>
		<stop  offset="0.7307" style="stop-color:#A02D6E"/>
		<stop  offset="0.8604" style="stop-color:#F3506F"/>
		<stop  offset="0.9851" style="stop-color:#FCB450"/>
	</linearGradient>
	<path class="st0" d="M38.9,31.9c-1.3,0.7-1.6,2.1-0.7,3.3l15.3,20.5c0.8,1.1,2.4,1.3,3.4,0.2l14.3-14.4c1-1,2.1-3,2.4-4.4l4.7-21.3
		c-4.4,1.1-9,1.9-13.6,2.4L38.9,31.9z"/>
	
		<linearGradient id="SVGID_2_" gradientUnits="userSpaceOnUse" x1="-349.083" y1="-324.2309" x2="-286.9007" y2="-216.5279" gradientTransform="matrix(-8.958111e-04 1 -1 -8.958111e-04 -215.4404 319.8854)">
		<stop  offset="0" style="stop-color:#8C42A1"/>
		<stop  offset="0.3886" style="stop-color:#922C88"/>
		<stop  offset="0.7307" style="stop-color:#A02D6E"/>
		<stop  offset="0.8604" style="stop-color:#F3506F"/>
		<stop  offset="0.9851" style="stop-color:#FCB450"/>
	</linearGradient>
	<path class="st1" d="M30.2,21.3L31,17c-2.7-0.6-5.3-1.2-7.8-1.9l4.9,6.6C29,22.9,29.9,22.7,30.2,21.3z"/>
	
		<linearGradient id="SVGID_3_" gradientUnits="userSpaceOnUse" x1="-341.6071" y1="-328.5471" x2="-279.4247" y2="-220.8441" gradientTransform="matrix(-8.958111e-04 1 -1 -8.958111e-04 -215.4404 319.8854)">
		<stop  offset="0" style="stop-color:#8C42A1"/>
		<stop  offset="0.3886" style="stop-color:#922C88"/>
		<stop  offset="0.7307" style="stop-color:#A02D6E"/>
		<stop  offset="0.8604" style="stop-color:#F3506F"/>
		<stop  offset="0.9851" style="stop-color:#FCB450"/>
	</linearGradient>
	<path class="st2" d="M36.3,27.4l16-8.4c-5.4,0-10.9-0.4-16.2-1.1l-1.5,8.3C34.3,27.5,35.1,28.1,36.3,27.4z"/>
	
		<linearGradient id="SVGID_4_" gradientUnits="userSpaceOnUse" x1="-321.5338" y1="-340.1364" x2="-259.3515" y2="-232.4334" gradientTransform="matrix(-8.958111e-04 1 -1 -8.958111e-04 -215.4404 319.8854)">
		<stop  offset="0" style="stop-color:#8C42A1"/>
		<stop  offset="0.3886" style="stop-color:#922C88"/>
		<stop  offset="0.7307" style="stop-color:#A02D6E"/>
		<stop  offset="0.8604" style="stop-color:#F3506F"/>
		<stop  offset="0.9851" style="stop-color:#FCB450"/>
	</linearGradient>
	<path class="st3" d="M79.1,33.7l19.5-19.5c-4-2.4-10-2.5-16.8,0.6l-3.9,18.1C77.5,34.4,78.1,34.7,79.1,33.7z"/>
	
		<linearGradient id="SVGID_5_" gradientUnits="userSpaceOnUse" x1="-300.8723" y1="-352.0653" x2="-238.6899" y2="-244.3623" gradientTransform="matrix(-8.958111e-04 1 -1 -8.958111e-04 -215.4404 319.8854)">
		<stop  offset="0" style="stop-color:#8C42A1"/>
		<stop  offset="0.3886" style="stop-color:#922C88"/>
		<stop  offset="0.7307" style="stop-color:#A02D6E"/>
		<stop  offset="0.8604" style="stop-color:#F3506F"/>
		<stop  offset="0.9851" style="stop-color:#FCB450"/>
	</linearGradient>
	<path class="st4" d="M74.6,47.3l-5.7,26.2c-0.3,1.4,0.1,3.5,1,4.6l0.7,0.9c10.9-14.2,20.8-28.5,29.5-44.3c4-6.8,4.2-12.8,2-16.8
		L77,43C76,44,74.9,46,74.6,47.3z"/>
	
		<linearGradient id="SVGID_6_" gradientUnits="userSpaceOnUse" x1="-299.649" y1="-352.7715" x2="-237.4667" y2="-245.0685" gradientTransform="matrix(-8.958111e-04 1 -1 -8.958111e-04 -215.4404 319.8854)">
		<stop  offset="0" style="stop-color:#8C42A1"/>
		<stop  offset="0.3886" style="stop-color:#922C88"/>
		<stop  offset="0.7307" style="stop-color:#A02D6E"/>
		<stop  offset="0.8604" style="stop-color:#F3506F"/>
		<stop  offset="0.9851" style="stop-color:#FCB450"/>
	</linearGradient>
	<path class="st5" d="M66.4,70.1l4-18.5c0.3-1.4-0.3-1.7-1.3-0.7l-9.3,9.3c-1,1-1.1,2.8-0.3,3.9l4.8,6.4
		C65.1,71.7,66.1,71.5,66.4,70.1z"/>
	
		<linearGradient id="SVGID_7_" gradientUnits="userSpaceOnUse" x1="-325.8185" y1="-337.6626" x2="-263.6363" y2="-229.9596" gradientTransform="matrix(-8.958111e-04 1 -1 -8.958111e-04 -215.4404 319.8854)">
		<stop  offset="0" style="stop-color:#8C42A1"/>
		<stop  offset="0.3886" style="stop-color:#922C88"/>
		<stop  offset="0.7307" style="stop-color:#A02D6E"/>
		<stop  offset="0.8604" style="stop-color:#F3506F"/>
		<stop  offset="0.9851" style="stop-color:#FCB450"/>
	</linearGradient>
	<path class="st6" d="M24.6,39.5l-13.8,7.4c3.6,5.8,7.4,11.5,11.4,17.1l4.3-23.2C26.7,39.4,25.9,38.8,24.6,39.5z"/>
	
		<linearGradient id="SVGID_8_" gradientUnits="userSpaceOnUse" x1="-316.286" y1="-343.1663" x2="-254.1036" y2="-235.4633" gradientTransform="matrix(-8.958111e-04 1 -1 -8.958111e-04 -215.4404 319.8854)">
		<stop  offset="0" style="stop-color:#8C42A1"/>
		<stop  offset="0.3886" style="stop-color:#922C88"/>
		<stop  offset="0.7307" style="stop-color:#A02D6E"/>
		<stop  offset="0.8604" style="stop-color:#F3506F"/>
		<stop  offset="0.9851" style="stop-color:#FCB450"/>
	</linearGradient>
	<path class="st7" d="M49.3,63.3c1-1,1.1-2.8,0.3-3.9L34.1,38.5c-0.8-1.1-1.8-0.9-2,0.5l-5.7,30.9c2.3,3.2,4.7,6.3,7.1,9.4
		L49.3,63.3z"/>
	
		<linearGradient id="SVGID_9_" gradientUnits="userSpaceOnUse" x1="-291.2873" y1="-357.5993" x2="-229.1049" y2="-249.8963" gradientTransform="matrix(-8.958111e-04 1 -1 -8.958111e-04 -215.4404 319.8854)">
		<stop  offset="0" style="stop-color:#8C42A1"/>
		<stop  offset="0.3886" style="stop-color:#922C88"/>
		<stop  offset="0.7307" style="stop-color:#A02D6E"/>
		<stop  offset="0.8604" style="stop-color:#F3506F"/>
		<stop  offset="0.9851" style="stop-color:#FCB450"/>
	</linearGradient>
	<path class="st8" d="M62.8,77.2l-7-9.5c-0.8-1.1-2.4-1.3-3.4-0.2L36.5,83.4c7.4,10,17.5,11.3,25.9,4.8l1.4-6.4
		C64.1,80.4,63.7,78.4,62.8,77.2z"/>
	
		<linearGradient id="SVGID_10_" gradientUnits="userSpaceOnUse" x1="-350.0756" y1="-323.6577" x2="-287.8933" y2="-215.9547" gradientTransform="matrix(-8.958111e-04 1 -1 -8.958111e-04 -215.4404 319.8854)">
		<stop  offset="0" style="stop-color:#8C42A1"/>
		<stop  offset="0.3886" style="stop-color:#922C88"/>
		<stop  offset="0.7307" style="stop-color:#A02D6E"/>
		<stop  offset="0.8604" style="stop-color:#F3506F"/>
		<stop  offset="0.9851" style="stop-color:#FCB450"/>
	</linearGradient>
	<path class="st9" d="M28.3,31.3c0.1-0.3-0.6-1.4-1.4-2.6l-12-16.1C2.7,11-4.2,21.1,3.8,34.7c1.4,2.6,2.9,5.2,4.4,7.7L25.9,33
		C27.2,32.3,28.3,31.5,28.3,31.3z"/>
</g>
<g>
	<path class="st10" d="M176.9,28.7L155.8,78H142l-21-49.3h15l13.4,32.1l13.7-32.1H176.9z"/>
	<path class="st10" d="M179.8,28.7h13.9V78h-13.9V28.7z"/>
	<path class="st10" d="M250.6,64.5c0,8.5-7,13.5-20.3,13.5h-26.6V28.7h25.2c13,0,19.3,5.3,19.3,12.9c0,4.7-2.4,8.5-6.6,10.7
		C247.1,54.3,250.6,58.5,250.6,64.5z M217.5,38.8v9.5h9.6c4.6,0,7-1.6,7-4.8c0-3.1-2.4-4.7-7-4.7H217.5z M236.5,63
		c0-3.4-2.5-5-7.3-5h-11.7v10h11.7C234,68,236.5,66.3,236.5,63z"/>
	<path class="st10" d="M297.4,67.3V78h-39.6V28.7h38.7v10.8h-24.9v8.3h21.9v10.4h-21.9v9h25.8V67.3z"/>
</g>
</svg>
